<?xml version="1.0" encoding="UTF-8" standalone="no"?>
<svg
   xmlns:dc="http://purl.org/dc/elements/1.1/"
   xmlns:cc="http://creativecommons.org/ns#"
   xmlns:rdf="http://www.w3.org/1999/02/22-rdf-syntax-ns#"
   xmlns:svg="http://www.w3.org/2000/svg"
   xmlns="http://www.w3.org/2000/svg"
   xmlns:sodipodi="http://sodipodi.sourceforge.net/DTD/sodipodi-0.dtd"
   xmlns:inkscape="http://www.inkscape.org/namespaces/inkscape"
   id="svg5034"
   version="1.1"
   viewBox="0 0 85.738823 27.841873"
   height="27.841873mm"
   width="85.738823mm"
   sodipodi:docname="logo.svg"
   inkscape:version="0.92.4 (33fec40, 2019-01-16)">
  <sodipodi:namedview
     pagecolor="#ffffff"
     bordercolor="#666666"
     borderopacity="1"
     objecttolerance="10"
     gridtolerance="10"
     guidetolerance="10"
     inkscape:pageopacity="0"
     inkscape:pageshadow="2"
     inkscape:window-width="1920"
     inkscape:window-height="1025"
     id="namedview7"
     showgrid="false"
     inkscape:zoom="4.3117831"
     inkscape:cx="117.36542"
     inkscape:cy="29.817125"
     inkscape:window-x="0"
     inkscape:window-y="27"
     inkscape:window-maximized="1"
     inkscape:current-layer="svg5034" />
  <defs
     id="defs5028" />
  <metadata
     id="metadata5031">
    <rdf:RDF>
      <cc:Work
         rdf:about="">
        <dc:format>image/svg+xml</dc:format>
        <dc:type
           rdf:resource="http://purl.org/dc/dcmitype/StillImage" />
        <dc:title />
      </cc:Work>
    </rdf:RDF>
  </metadata>
  <g
     transform="translate(156.2624,-7.9123963)"
     id="layer1">
    <path
       d="m -130.06266,24.039494 c -0.0775,0.55999 -0.1814,1.192844 -0.1814,1.821786 -1e-4,0.190552 0.0244,0.377242 0.0244,0.559249 v 0.0016 l -0.006,7.94e-4 -5.90037,0.752898 c -0.0302,-0.364808 -0.0459,-0.738928 -0.0459,-1.122336 -0.0109,-1.834198 0.31174,-3.44379 0.88419,-4.805468 z m 1.5348,-2.719443 c -0.002,0.0016 -0.004,0.0031 -0.005,0.0047 -0.756,0.6359 -1.27606,1.56922 -1.52937,2.714787 l -5.22566,-2.791489 c 0.98134,-2.333758 2.69629,-3.940969 4.728,-4.703921 l 2.03007,4.77131 z M -116.81973,7.9123963 V 18.794206 l -5.98948,4.400259 c -0.0105,-0.03456 -0.0181,-0.05613 -0.0246,-0.07668 -0.0156,-0.05344 -0.0332,-0.106865 -0.0509,-0.159543 -0.009,-0.02633 -0.0181,-0.05271 -0.0281,-0.07901 -0.038,-0.104563 -0.0799,-0.206798 -0.12632,-0.307525 -0.0117,-0.02553 -0.0233,-0.05032 -0.0357,-0.07512 -0.27733,-0.5724 -0.69024,-1.069658 -1.21306,-1.423644 -2e-5,-7.94e-4 -7.9e-4,-7.94e-4 -7.9e-4,-7.94e-4 0.47361,-1.023008 0.94798,-2.045665 1.42126,-3.068822 0.0246,0.01955 0.0672,0.09506 0.0915,0.129407 0.004,0.0024 0.008,0.0039 0.0124,0.0039 h 0.0571 l -3e-5,-10.2242377 4.50882,0 z m -13.01957,20.4592497 -4.82476,3.552137 c -0.79303,-1.306697 -1.31283,-2.91002 -1.46304,-4.748053 l 5.89976,-0.752899 0.006,-7.94e-4 c 0.0449,0.717206 0.17346,1.365541 0.37801,1.935613 0.002,0.0046 0.003,0.0093 0.005,0.01394 z m 3.21056,-7.841641 c 0,0 -0.11259,0.01278 -0.14409,0.01781 -0.0403,0.0062 -0.0805,0.01167 -0.12081,0.0186 -0.0496,0.0086 -0.0984,0.01741 -0.14793,0.02826 -0.0876,0.01937 -0.17351,0.04088 -0.25794,0.06564 -0.46318,0.137134 -0.87289,0.362373 -1.22838,0.659871 l -0.002,-0.0047 -2.03012,-4.771284 c 0.89307,-0.336153 1.86822,-0.508926 2.84808,-0.508926 0.29179,-0.01122 0.95084,0.05067 1.00145,0.05652 z m 2.33998,0.542157 v 0 c -0.1,-0.06739 -0.30108,-0.161604 -0.30108,-0.161604 -0.50062,-0.218194 -1.02386,-0.366356 -1.47499,-0.386004 -0.1498,-0.007 -0.25513,-0.0072 -0.3819,-0.0047 -0.0531,0.0029 -0.10605,0.0047 -0.18201,0.01011 l -0.0821,-4.438212 c 0.005,7.94e-4 0.008,7.94e-4 0.0129,0.0016 1.4529,0.323805 3.04167,0.882915 3.83051,1.91 z m 7.47138,10.145184 -5.96061,-3.220614 v 0 0 0 c 0.0681,-0.337741 0.0716,-0.698633 0.0716,-1.09519 l -6e-5,-1.440683 5.88672,-0.747448 v 4.962578 c 0,0.507339 -0.005,1.035606 0.002,1.541357 z m -11.73612,-0.947261 -2.29426,4.945565 c -1.54985,-0.608039 -2.87509,-1.740456 -3.81622,-3.291867 l 4.82468,-3.552137 c 0.28893,0.799333 0.72583,1.442217 1.2858,1.898439 z m 11.73377,-11.475879 v 5.919205 l -5.88672,0.747448 v -1.025551 c 0,-0.308293 -0.0285,-0.731944 -0.0673,-1.04021 -0.0125,-0.07305 -0.0239,-0.133543 -0.0355,-0.200633 z m -9.59052,16.744421 c -0.55229,0.123957 -1.12617,0.18669 -1.70947,0.18669 -0.95895,0 -1.87671,-0.175816 -2.72796,-0.509667 l 2.29418,-4.945565 c 0.57319,0.467068 1.275,0.739722 2.07663,0.785415 z m 3.20276,-1.716432 -0.002,0.0024 c -0.87056,0.867516 -1.98207,1.440683 -3.20045,1.714077 l -0.0667,-4.483126 c 0.0806,0.0047 0.16266,0.0078 0.24558,0.0078 0.61265,0 1.17885,-0.151818 1.67,-0.422143 z m 6.53264,1.509633 h -5.20197 l -0.2703,-2.788417 h -0.0767 c -0.27493,0.464741 -0.60645,0.910114 -0.98364,1.28733 l -0.002,-0.0062 -1.35152,-3.18344 c 0.86826,-0.478684 1.49953,-1.33223 1.72106,-2.391093 0.0232,-0.08673 0.0452,-0.165735 0.0623,-0.253285 l 5.96061,3.220614 c 0.0248,1.607238 0.0837,3.107557 0.14256,4.114482 z m 4.20965,-27.3903301 v 1.5043017 10.7946904 4.624525 3.48144 l 5.3e-4,1.358572 c 0,2.11918 -0.0292,4.416706 -0.10594,5.655987 h 2.06447 l 4.45606,-6.002218 c -0.1519,-0.265695 -0.29205,-0.566835 -0.37569,-0.871265 -0.0124,-0.04334 -0.0162,-0.08787 -0.0269,-0.131257 -0.0774,-0.308266 -0.12557,-0.655029 -0.12557,-1.040765 v -0.509529 -1.175121 -1.089856 -0.45372 -0.0011 l 0.0104,-5.29e-4 0.002,-0.0016 0.003,0.0021 c 0.0186,-0.212963 0.0733,-0.418711 0.11886,-0.623736 0.12723,-0.559965 0.34846,-1.064607 0.67644,-1.490348 v -5.29e-4 c 0.38108,-0.494215 0.89367,-0.880753 1.44591,-1.120862 0.031,-0.01392 0.0625,-0.02689 0.0951,-0.03927 0.0101,-0.0054 0.0201,-0.0093 0.031,-0.01241 0.0169,-0.007 0.033,-0.014 0.0501,-0.02016 0.16039,-0.05964 0.32439,-0.107001 0.49248,-0.141079 0.0233,-0.0047 0.0434,-0.0093 0.0667,-0.01394 0.0147,-0.0024 0.029,-0.0033 0.0444,-0.0057 0.008,-0.0011 0.0503,-0.0052 0.0584,-0.0078 l 0.0718,-4.141301 c -1.31669,0.445495 -2.36687,1.231773 -3.07105,2.238697 h -0.0956 V 7.9414502 Z m 1.95905,27.4195161 h 2.90577 l 0.23202,-2.633432 h 0.0765 c 0.90318,1.471666 2.10792,2.343034 3.50211,2.746603 v 0 c 0.68398,0.199099 1.43634,0.280085 2.16215,0.280085 0.99687,0 1.993662,-0.18138 2.937801,-0.543118 l -2.421551,-4.54546 c -0.54613,0.305938 -1.20236,0.464571 -1.9203,0.464571 -0.22912,-0.01431 -0.5093,-0.0137 -0.68058,-0.03927 -1.00705,-0.238572 -1.47519,-0.566796 -2.10168,-1.390095 -0.13274,-0.194721 -0.13747,-0.191969 -0.23616,-0.342102 z M -100.7791,16.064 c -0.97054,0 -1.85163,0.143338 -2.63239,0.405143 l -0.0718,4.1413 c 0.15568,-0.0232 0.30961,-0.03819 0.46915,-0.03819 1.1371,0 2.02692,0.400979 2.67994,1.077968 l 3.374986,-4.537188 C -98.071403,16.431413 -99.366379,16.064 -100.7791,16.064 Z m 3.819926,1.049033 -3.374476,4.537188 c 0.735837,0.763694 1.168798,1.879413 1.312068,3.172934 0.03487,0.319881 0.05315,0.650356 0.05323,0.989605 0,0.279585 -0.01138,0.548741 -0.03152,0.808218 -0.06355,0.79621 -0.222631,1.495517 -0.468191,2.091862 -0.365572,0.890772 -0.923717,1.550077 -1.643307,1.952852 l 2.421555,4.54546 c 1.580886,-0.606452 3.012721,-1.72026 4.045231,-3.34295 0.769937,-1.209116 1.317932,-2.700909 1.539441,-4.47621 0.07125,-0.573961 0.109556,-1.176906 0.109556,-1.80971 0.0055,-0.807879 -0.05537,-1.575885 -0.174667,-2.298568 -0.467784,-2.831042 -1.8487,-4.980215 -3.788916,-6.170681 z m 7.345805,-9.1064212 V 35.42561 h 4.530473 c 0.157554,0.09958 0.313357,0.106783 0.460436,0 h 0.895554 v -5.925738 l 1.454174,-1.834512 -1.454174,-3.161049 c 0.0066,-5.382686 0,-11.032328 0,-16.4976992 z m 5.886463,16.4976992 1.454174,3.161049 4.54339,7.76025 h 7.205763 l -6.106604,-8.899716 -5.71128,-4.325834 c -0.483547,0.790422 -0.99273,1.593739 -1.385443,2.304251 z m 5.188312,-7.977806 -2.523876,3.761009 5.074108,1.338937 4.501533,-5.099946 z m -2.523876,3.761009 -1.278993,1.912546 5.71128,4.325834 -1.599901,-2.343525 2.241722,-2.555918 z m -5.843368,-1.534954 -0.0011,0.0016 0.0011,7.94e-4 7.9e-5,-0.0028 z m -0.0011,0.0016 0.0011,-0.0016 -0.0021,7.94e-4 z m 0.0011,-0.0016 2.65e-4,-1.32e-4 v -2.65e-4 z m -0.0066,-0.0026 0.0033,0.0024 -0.0011,-0.0019 z m 0.0049,0.0055 0.0019,0.0036 1.06e-4,-0.004 -0.0011,-7.93e-4 z m -2.38e-4,-0.0021 -7.94e-4,2.65e-4 7.94e-4,0.0019 7.94e-4,-0.0013 z m -0.0013,-0.0011 5.29e-4,0.0013 7.94e-4,-2.65e-4 z m 0.0036,-5.3e-5 7.94e-4,-2.65e-4 -7.94e-4,-1.58e-4 -7.9e-5,2.38e-4 z m -2.64e-4,1.32e-4 2.64e-4,-5.29e-4 v -2.64e-4 l -0.0046,-0.0013 0.0011,0.0019 0.0013,0.0011 z m 2.64e-4,-7.93e-4 -7.9e-5,-2.7e-5 v 2.65e-4 z m -60.673864,-2.706149 c -1.90471,0 -3.55946,0.284988 -4.86844,0.664559 l 1.46245,3.633369 c 0.76213,-0.181239 1.56892,-0.29042 2.35592,-0.29042 0.97364,0 1.68291,0.161674 2.19263,0.41496 0.006,0.0021 0.0127,0.0051 0.0196,0.0078 l 0.007,0.0057 v 5.29e-4 c 0,0 7.9e-4,0.0011 0.002,0.0011 0.004,0.0024 -0.006,0.0046 -0.003,0.0062 7.9e-4,7.94e-4 0.006,5.29e-4 0.006,5.29e-4 0.90466,0.469398 1.18421,1.231922 1.2144,1.865519 0.002,0.0426 0.0196,0.08448 0.0196,0.125574 v 0.236159 h -0.0848 c -0.51975,0 -0.96778,0.07752 -1.43403,0.07752 v -5.29e-4 h -0.002 c -1.13149,0.07735 -2.18557,0.190138 -3.1476,0.405114 l -0.002,-0.0052 c -1.11388,0.247761 -2.1073,0.601009 -2.95846,1.060326 -0.99217,0.534458 -1.79307,1.212657 -2.37402,2.037601 -0.70721,1.003035 -1.08836,2.223177 -1.08831,3.66386 0,0.687811 0.12111,1.363178 0.35037,1.996776 0.59407,1.640522 1.92839,2.993789 3.85093,3.532084 0.57782,0.161899 1.20739,0.250632 1.8867,0.250632 0.68472,0 1.34052,-0.07555 1.95544,-0.224277 1.06117,-0.255614 2.00201,-0.727601 2.76882,-1.396812 l -1.16478,-2.896465 c -0.34153,0.185896 -0.72286,0.313973 -1.13275,0.367419 -0.13774,0.01783 -0.2787,0.02739 -0.42271,0.02739 -0.34941,0 -0.67667,-0.05253 -0.96945,-0.157097 -0.60807,-0.21844 -1.06473,-0.665612 -1.25057,-1.347205 -0.0597,-0.219207 -0.092,-0.462217 -0.092,-0.730187 6e-5,-0.484901 0.10938,-0.898421 0.31006,-1.250053 0.17889,-0.314483 0.43089,-0.578919 0.74466,-0.798917 0.29656,-0.207486 0.64791,-0.375065 1.04438,-0.507463 l 5.3e-4,0.0011 c 0.37637,-0.126232 0.79562,-0.2414 1.24489,-0.307996 v 0 l 5.2e-4,-0.0031 h 5.3e-4 c 0.51343,-0.0767 1.06783,-0.102611 1.65262,-0.111104 v 0 c 0,0 0.32414,0.0077 0.55655,0.0093 v 1.900661 l -0.0114,0.142626 c -0.0276,0.345903 -0.0724,0.693198 -0.14986,1.00149 -0.006,0.01937 -0.0277,0.03905 -0.0346,0.05839 -0.0488,0.136339 -0.10886,0.268538 -0.17622,0.396359 l 6.02496,2.212784 c -0.0114,-0.453125 -0.01,-0.921779 -0.01,-1.39578 v -4.319633 -2.230871 c 0,-1.766755 -0.34372,-3.42025 -1.12445,-4.765683 -7.9e-4,-0.0016 -0.002,0.0069 -0.005,0.0057 l 0.002,-0.0021 0.003,-0.0036 c -0.98591,-1.695302 -2.71675,-2.906901 -5.46015,-3.258762 l 5.3e-4,-0.0031 v -0.0021 c -0.54216,-0.06585 -1.10535,-0.100769 -1.71101,-0.100769 z m 0.9648,15.1722 1.16478,2.896465 c 0.24138,-0.21082 0.46593,-0.476128 0.67077,-0.708485 h 0.11575 l 0.34675,1.936316 h 3.64629 1.63246 c -0.14222,-0.774541 -0.20501,-1.944217 -0.23668,-3.219958 l -6.02496,-2.212784 c -0.13306,0.254211 -0.32272,0.50673 -0.52555,0.718817 -0.22666,0.237067 -0.49254,0.427215 -0.78961,0.589113 z m -5.83427,-14.507641 c -1.04775,0.303477 -1.88202,0.666777 -2.46445,0.992188 l 1.079,3.775995 c 0.72943,-0.455983 1.74235,-0.871011 2.84686,-1.134298 z m 6.03559,3.772794 v -7.94e-4 h 2e-5 -2e-5 m 0,0 v 7.94e-4 l -8e-4,0.007 c 0,0 -7.9e-4,0 -0.002,-7.94e-4 -0.004,-0.0016 -0.009,-0.0039 -0.0124,-0.0062 -8e-4,0 -0.0163,-7.94e-4 -0.0163,-7.94e-4 l -3e-5,-7.94e-4 0.002,-0.01315 c 0.0102,0.0038 0.0194,0.0093 0.0296,0.01392 z m 0,0 v 7.94e-4 l -8e-4,0.007 c 0,0 -7.9e-4,0 -0.002,-7.94e-4 -0.004,-0.0016 -0.009,-0.0039 -0.0124,-0.0062 -8e-4,0 -0.0163,-7.94e-4 -0.0163,-7.94e-4 l -3e-5,-7.94e-4 0.002,-0.01315 c 0.0102,0.0038 0.0194,0.0093 0.0296,0.01392 z m 0,0 v 7.94e-4 l -8e-4,0.007 c 0,0 -7.9e-4,0 -0.002,-7.94e-4 -0.004,-0.0016 -0.009,-0.0039 -0.0124,-0.0062 -8e-4,0 -0.0163,-7.94e-4 -0.0163,-7.94e-4 l -3e-5,-7.94e-4 0.002,-0.01315 c 0.0102,0.0038 0.0194,0.0093 0.0296,0.01392 z m 1.2051,1.87288 c -0.0301,-0.633598 -0.30121,-1.39573 -1.20584,-1.865127 -6e-5,0 -8e-4,0 -0.002,-7.94e-4 l 7.9e-4,-0.007 c 7.9e-4,0 7.9e-4,7.94e-4 0.002,7.94e-4 0.91551,0.468603 1.1765,1.236186 1.20515,1.872086 z m 0,0 c -0.0301,-0.633598 -0.30121,-1.39573 -1.20584,-1.865127 -6e-5,0 -8e-4,0 -0.002,-7.94e-4 l 7.9e-4,-0.007 c 7.9e-4,0 7.9e-4,7.94e-4 0.002,7.94e-4 0.91551,0.468603 1.1765,1.236186 1.20515,1.872086 z m 0,0 c -0.0301,-0.633598 -0.30121,-1.39573 -1.20584,-1.865127 -6e-5,0 -8e-4,0 -0.002,-7.94e-4 l 7.9e-4,-0.007 c 7.9e-4,0 7.9e-4,7.94e-4 0.002,7.94e-4 0.91551,0.468603 1.1765,1.236186 1.20515,1.872086 z"
       style="fill:#000048;fill-opacity:1;fill-rule:evenodd;stroke-width:0.26458332"
       id="path4859"
       inkscape:connector-curvature="0"
       sodipodi:nodetypes="ccscccccccccccccccccccccccccscccccccccccccccccccccccccccccccccccccccccsccccccccccsccccsccccccccscccccccccccccccccccccccccsccccccccccccccccccccccccccccccscccccccsccsccsccccccccccccccccccccccccccccccccccccccccccccccccccccccccccccccccccccccccccccccccccccccccccccsccccccccscsccccccccccsccccsccccccccccccccccccccscsccccccccccccccccccccccccccccccccccccccccccccccccccccccccccccccccccccccccccccccccc" />
  </g>
</svg>
